<svg xmlns="http://www.w3.org/2000/svg" width="351" height="88" fill="none" viewBox="0 0 351 88">
    <path fill="#fff" d="M285.274 24.197c5.59.035 10.093 4.592 10.058 10.182-.035 5.59-4.592 10.093-10.182 10.058-5.563-.035-10.058-4.557-10.058-10.12 0-5.59 4.539-10.12 10.129-10.12h.053zm0-12.85c-12.69.071-22.917 10.421-22.846 23.102.071 12.69 10.412 22.917 23.102 22.846 12.637-.07 22.845-10.332 22.845-22.97-.017-12.707-10.323-22.986-23.031-22.977h-.07zM236.704 24.197c5.59.035 10.093 4.592 10.058 10.182-.035 5.59-4.592 10.093-10.182 10.058-5.564-.035-10.058-4.557-10.058-10.12 0-5.59 4.539-10.12 10.129-10.12h.053zm0-12.85c-12.69.071-22.917 10.421-22.846 23.102.071 12.69 10.412 22.917 23.102 22.846 12.637-.07 22.845-10.332 22.845-22.97-.017-12.707-10.323-22.986-23.031-22.977h-.07zM212.754 16.399c-.945-1.863-2.861-3.029-4.954-3.011h-21.591c-.548 0-1.511.273-1.511 2.048v8.62c-.035.335.204.644.548.68h9.626c.503.167.777.715.609 1.218-.018.053-.035.106-.062.15 0 .08-.053.142-.132.142h-.009l-.548.68-3.576 4.786c-3.85 5.192-8.937 13.264-9.9 14.359l.133.141c-1.272 1.704-1.484 3.974-.548 5.881.945 1.864 2.862 3.03 4.954 3.012h23.932c.548 0 1.519-.274 1.519-2.049v-8.619c.035-.335-.203-.645-.547-.68h-11.966c-.504-.168-.777-.715-.61-1.218.018-.053.036-.107.062-.15 0-.071.053-.133.133-.133h.009l.547-.68 3.577-4.786s8.936-13.123 9.767-14.36l.132-.14c1.228-1.74 1.386-4.01.406-5.891zM347.161 13.67c-2.182-.786-4.61-.194-6.191 1.502l-9.899 11.215c-.15.15-.398.15-.548 0l-9.899-11.348c-1.537-1.757-4.018-2.358-6.191-1.501-2.199.786-3.682 2.861-3.718 5.192v35.545c0 .273.142.689.822.689h7.983c1.316-.018 2.367-1.096 2.349-2.411 0-.062 0-.124-.009-.195v-18.05c.071-.22.309-.344.53-.274.009 0 .009 0 .018.01l4.124 4.644c1.077 1.228 2.631 1.925 4.265 1.916 1.634.01 3.188-.688 4.265-1.916l4.124-4.645c.415-.274.548.274.548.274v18.05c-.124 1.307.839 2.464 2.146 2.588.062.009.123.009.194.009h7.983c.689 0 .83-.416.83-.69V18.73c-.141-2.27-1.598-4.256-3.726-5.06zM0 16.037c0-1.166.945-2.11 2.11-2.11h14.81c11.86 0 19.984 7.92 19.984 20.531 0 12.61-8.124 20.532-19.984 20.532H2.11C.946 55 0 54.054 0 52.888V16.037zm16.584 29.248c5.846 0 9.776-4 9.776-10.818 0-6.817-3.93-10.827-9.776-10.827h-6.137v21.636h6.137v.009zM69.27 47.007v7.012c0 .538-.442.98-.98.98H41.531c-.539 0-.98-.442-.98-.98V14.915c0-.538.441-.98.98-.98h26.757c.54 0 .98.442.98.98v7.904c0 .539-.44.98-.98.98H51.546c-.539 0-.98.442-.98.98v4.063c0 .538.441.98.98.98h14.536c.538 0 .98.442.98.98v7.612c0 .54-.442.98-.98.98H51.546c-.539 0-.98.442-.98.98v4.664c0 .538.441.98.98.98h16.743c.548 0 .98.441.98.989zM49.038 9.75h-6.164l5.201-6.871C49.453 1.059 51.528 0 53.71 0c2.19 0 4.257 1.06 5.635 2.879l5.201 6.87h-6.164c-1.104 0-2.146-.574-2.826-1.554l-.07-.097c-.901-1.307-2.658-1.307-3.56 0l-.07.097c-.671.98-1.713 1.554-2.817 1.554zM83.655 36.692V13.935h9.758c1.404 0 2.535 1.14 2.535 2.535v19.87c0 7.037 1.987 8.963 6.764 8.963 4.725 0 6.712-1.926 6.712-8.964V16.47c0-1.404 1.139-2.534 2.534-2.534h9.582v22.757c0 12.258-7.021 19.128-18.943 19.128-11.921 0-18.942-6.87-18.942-19.128zM162.595 13.68c-2.182-.787-4.61-.195-6.191 1.5l-9.899 11.216c-.15.15-.398.15-.548 0l-9.899-11.348c-1.537-1.758-4.018-2.358-6.191-1.501-2.199.786-3.682 2.86-3.717 5.192v35.545c0 .273.141.688.821.688h7.983c1.316-.017 2.367-1.095 2.349-2.41 0-.062 0-.124-.009-.195V34.326c.071-.221.309-.345.53-.274.009 0 .009 0 .018.009l4.124 4.645c1.077 1.227 2.631 1.925 4.265 1.916 1.634.009 3.188-.689 4.265-1.916l4.124-4.645c.415-.274.548.274.548.274v18.05c-.124 1.307.839 2.464 2.146 2.587.062.01.123.01.194.01h7.983c.689 0 .83-.416.83-.69V18.74c-.141-2.27-1.598-4.248-3.726-5.06z"/>
    <path fill="#B8CF48" d="M56.085 83.426h-1.978v4.415h-2.481V75.778h4.477c1.422 0 2.525.318 3.294.954.768.636 1.157 1.528 1.157 2.693 0 .822-.177 1.51-.53 2.058-.354.547-.892.989-1.616 1.316l2.605 4.927v.115h-2.667l-2.26-4.415zm-1.978-2.014h2.005c.627 0 1.103-.159 1.448-.477.344-.318.512-.75.512-1.316 0-.565-.159-1.015-.486-1.342-.326-.327-.82-.486-1.483-.486h-1.996v3.621zM73.093 82.613h-4.768v3.232h5.599v1.996h-8.08V75.778h8.062v2.013h-5.581v2.87h4.768v1.952zM83.222 84.847l2.73-9.069h2.763l-4.194 12.054h-2.588l-4.186-12.054h2.756l2.72 9.07zM95.895 87.832h-2.482V75.778h2.482v12.054zM108.841 82.613h-4.769v3.232h5.599v1.996h-8.08V75.778h8.062v2.013h-5.581v2.87h4.769v1.952zM123.906 84.362l1.625-8.584h2.473l-2.676 12.054h-2.499l-1.96-8.062-1.961 8.062h-2.499l-2.676-12.054h2.473l1.634 8.566 1.986-8.566h2.102l1.978 8.584zM138.999 84.67c0-.467-.168-.83-.495-1.077-.327-.247-.927-.52-1.793-.794-.865-.283-1.545-.557-2.048-.822-1.369-.742-2.049-1.74-2.049-2.984 0-.654.185-1.237.547-1.74.371-.512.892-.91 1.581-1.201.689-.283 1.457-.433 2.314-.433.856 0 1.625.159 2.305.468.671.31 1.192.75 1.572 1.325.37.565.556 1.218.556 1.934h-2.482c0-.548-.176-.98-.521-1.29-.344-.309-.839-.459-1.466-.459-.609 0-1.077.133-1.413.389-.335.256-.503.591-.503 1.015 0 .389.194.724.592.98.397.265.971.513 1.739.742 1.413.424 2.447.954 3.091 1.581.645.627.972 1.413.972 2.35 0 1.041-.398 1.862-1.184 2.454-.786.592-1.854.892-3.188.892-.927 0-1.775-.168-2.534-.512-.76-.345-1.342-.804-1.74-1.395-.397-.592-.6-1.272-.6-2.05h2.49c0 1.334.795 1.996 2.384 1.996.592 0 1.051-.123 1.387-.362.318-.238.486-.574.486-1.006zM154.179 87.832V75.778h3.709c1.06 0 2.004.238 2.843.715s1.493 1.157 1.961 2.04c.468.883.706 1.881.706 3.003v.556c0 1.122-.229 2.12-.689 2.994-.459.874-1.112 1.545-1.951 2.03-.839.478-1.784.725-2.844.725h-3.735v-.009zm2.481-10.04v8.053h1.201c.972 0 1.714-.318 2.226-.954.512-.635.777-1.545.786-2.728v-.636c0-1.228-.256-2.155-.76-2.782-.503-.636-1.254-.945-2.225-.945h-1.228v-.008zM175.841 82.613h-4.769v3.232h5.599v1.996h-8.08V75.778h8.062v2.013h-5.581v2.87h4.769v1.952zM191.622 83.585v4.247h-2.482V75.778h4.707c.91 0 1.705.168 2.393.495.689.335 1.219.803 1.59 1.413.371.609.556 1.306.556 2.084 0 1.183-.406 2.11-1.209 2.799-.813.68-1.926 1.024-3.356 1.024h-2.199v-.008zm0-2.014h2.216c.654 0 1.157-.15 1.502-.46.344-.308.521-.75.521-1.324 0-.591-.177-1.068-.521-1.43-.345-.362-.83-.548-1.44-.566h-2.278v3.78zM207.933 83.426h-1.979v4.415h-2.481V75.778h4.477c1.422 0 2.526.318 3.294.954.768.636 1.157 1.528 1.157 2.693 0 .822-.177 1.51-.53 2.058-.353.547-.892.989-1.616 1.316l2.605 4.927v.115h-2.667l-2.26-4.415zm-1.979-2.014h2.005c.627 0 1.104-.159 1.448-.477.345-.318.512-.75.512-1.316 0-.565-.158-1.015-.485-1.342-.327-.327-.822-.486-1.484-.486h-1.996v3.621zM227.59 82.083c0 1.184-.212 2.226-.627 3.126-.415.892-1.015 1.581-1.801 2.067-.777.486-1.678.724-2.685.724-.998 0-1.89-.238-2.676-.724-.786-.477-1.395-1.166-1.819-2.058-.433-.892-.645-1.916-.653-3.073v-.6c0-1.184.212-2.235.644-3.135.424-.901 1.033-1.599 1.811-2.076.777-.485 1.677-.724 2.675-.724.998 0 1.899.239 2.676.724.777.486 1.387 1.175 1.81 2.076.424.9.645 1.942.645 3.126v.547zm-2.517-.547c0-1.263-.229-2.226-.68-2.88-.45-.653-1.095-.988-1.934-.988-.83 0-1.474.327-1.925.971-.45.654-.68 1.599-.689 2.853v.591c0 1.228.23 2.19.68 2.862.451.68 1.104 1.015 1.952 1.015.83 0 1.475-.327 1.925-.98.451-.654.671-1.607.68-2.861v-.583h-.009zM232.783 87.832V75.778h3.709c1.059 0 2.004.238 2.843.715s1.493 1.157 1.961 2.04c.468.883.706 1.881.706 3.003v.556c0 1.122-.229 2.12-.689 2.994-.459.874-1.112 1.545-1.951 2.03-.839.478-1.784.725-2.844.725h-3.735v-.009zm2.481-10.04v8.053h1.201c.972 0 1.713-.318 2.226-.954.512-.635.777-1.545.786-2.728v-.636c0-1.228-.257-2.155-.76-2.782-.503-.636-1.254-.945-2.225-.945h-1.228v-.008zM256.326 75.778v7.939c0 1.316-.415 2.367-1.236 3.126-.822.768-1.952 1.148-3.383 1.148-1.404 0-2.525-.37-3.355-1.121-.83-.742-1.254-1.767-1.263-3.074V75.76h2.481v7.957c0 .786.186 1.369.566 1.73.379.363.9.54 1.571.54 1.396 0 2.111-.733 2.129-2.2V75.76h2.49v.018zM270.826 77.791h-3.691v10.05h-2.481v-10.05h-3.648v-2.013h9.82v2.013zM285.309 82.083c0 1.184-.212 2.226-.627 3.126-.415.892-1.016 1.581-1.802 2.067-.777.486-1.677.724-2.684.724-.998 0-1.89-.238-2.676-.724-.786-.477-1.395-1.166-1.819-2.058-.433-.892-.645-1.916-.654-3.073v-.6c0-1.184.212-2.235.645-3.135.424-.901 1.033-1.599 1.81-2.076.777-.485 1.678-.724 2.676-.724 1.007 0 1.899.239 2.676.724.777.486 1.386 1.175 1.81 2.076.424.9.645 1.942.645 3.126v.547zm-2.517-.547c0-1.263-.23-2.226-.68-2.88-.45-.653-1.095-.988-1.934-.988-.83 0-1.475.327-1.925.971-.45.654-.68 1.599-.689 2.853v.591c0 1.228.23 2.19.68 2.862.451.68 1.104 1.015 1.952 1.015.83 0 1.475-.327 1.925-.98.45-.654.671-1.607.68-2.861v-.583h-.009zM296.754 84.67c0-.467-.168-.83-.495-1.077-.326-.247-.927-.52-1.792-.794-.866-.283-1.546-.557-2.049-.822-1.369-.742-2.049-1.74-2.049-2.984 0-.654.185-1.237.548-1.74.37-.512.891-.91 1.58-1.201.689-.283 1.457-.433 2.314-.433s1.625.159 2.305.468c.671.31 1.192.75 1.572 1.325.371.565.556 1.218.556 1.934h-2.481c0-.548-.177-.98-.521-1.29-.345-.309-.839-.459-1.466-.459-.61 0-1.078.133-1.413.389-.336.256-.504.591-.504 1.015 0 .389.195.724.592.98.397.265.971.513 1.74.742 1.413.424 2.446.954 3.091 1.581.644.627.971 1.413.971 2.35 0 1.041-.397 1.862-1.183 2.454-.786.592-1.855.892-3.188.892-.928 0-1.775-.168-2.535-.512-.759-.345-1.342-.804-1.74-1.395-.397-.592-.6-1.272-.6-2.05h2.49c0 1.334.795 1.996 2.385 1.996.591 0 1.051-.123 1.386-.362.336-.238.486-.574.486-1.006z"/>
</svg>
